<svg viewBox="0 0 142 48" fill="#ffffff" xmlns="http://www.w3.org/2000/svg">
<g id="Liwa_Logo">
<path id="image 6 (Traced)" fill-rule="evenodd" clip-rule="evenodd" d="M6.12094 1.33463C4.40151 1.67466 3.28585 2.25113 2.12705 3.39844C1.42696 4.09159 1.18596 4.4093 0.822815 5.11751C-0.0182574 6.75768 -0.00832235 6.66295 0.00236965 12.959C0.0074791 15.9887 0.0515717 23.489 0.100395 29.6262C0.193122 41.2836 0.207221 41.6437 0.615031 42.7941C0.958499 43.7628 1.46575 44.5557 2.22356 45.3086C2.86026 45.9411 3.1496 46.1465 3.97941 46.5555C5.5782 47.3433 7.41287 47.6886 9.37272 47.5703C12.5231 47.3804 45.9228 45.1256 73.6409 43.2317C81.589 42.6886 88.1901 42.2443 88.31 42.2443C88.5041 42.2443 88.5669 42.362 88.8831 43.3179C89.0784 43.9084 89.359 44.5706 89.5067 44.7894C90.0657 45.6178 91.0988 46.033 92.0911 45.828C93.5391 45.5288 94.2004 44.1894 93.7423 42.4837C93.6595 42.1751 93.6044 41.9102 93.6198 41.8947C93.6352 41.8794 97.1569 41.6346 101.446 41.3508C109.133 40.8422 130.069 39.4706 134.522 39.184C135.779 39.103 137.057 38.9726 137.361 38.8941C139.156 38.4302 140.171 37.3898 140.569 35.6056C140.792 34.6031 140.892 11.1466 140.678 9.93254C140.342 8.02259 139.475 7.05128 137.785 6.68988C137.397 6.60692 135.508 6.48356 132.851 6.36783C127.404 6.13054 84.0172 4.30336 44.5712 2.65002C27.8921 1.95094 13.2948 1.33613 12.1326 1.28368C9.29428 1.15571 6.92416 1.17577 6.12094 1.33463ZM66.2863 8.77374C144.927 11.0855 136.964 10.8331 137.255 11.0228C137.793 11.3734 137.771 10.8768 137.771 22.8463C137.771 35.0233 137.802 34.402 137.183 34.6582C137.012 34.729 136.638 34.8132 136.352 34.8455C135.823 34.9051 122.568 35.6094 104.418 36.5422C98.9016 36.8257 93.9354 37.0849 93.3819 37.1181L92.3755 37.1786L92.2268 36.7217C91.2857 33.8312 86.5388 18.4853 86.1488 17.0729C85.508 14.7514 85.1996 13.9498 84.5952 13.0335C83.8501 11.9039 83.0636 11.3305 81.8261 11.0147C80.1272 10.581 78.4311 11.2992 77.3951 12.8912C76.8047 13.7985 76.54 14.5662 74.6115 20.9651C71.1196 32.5516 71.4108 31.4745 71.4028 32.8278C71.3962 33.9282 71.4131 34.0417 71.6614 34.5698C72.5972 36.5608 74.7445 36.7622 75.9318 34.9702C76.2901 34.4293 76.7146 33.2048 77.2768 31.09L77.6406 29.7214L80.7394 29.702C82.4438 29.6913 83.9938 29.6806 84.1839 29.678L84.5296 29.6733L85.7361 33.7223C86.3997 35.9493 87.2636 38.6602 87.6559 39.7463C88.0483 40.8325 88.3567 41.7339 88.3413 41.7491C88.3258 41.7645 87.602 40.8663 86.7328 39.753C85.8635 38.6397 85.1191 37.7085 85.0785 37.6836C85.0379 37.6586 80.9847 37.8687 76.0713 38.1504C34.824 40.5158 11.4405 41.7346 8.71039 41.6615C7.14879 41.6198 6.77513 41.4747 6.43649 40.7786L6.22435 40.3423L6.12699 24.5555C6.07353 15.8727 6.06095 8.56564 6.09908 8.31742C6.18121 7.78322 6.59375 7.26061 7.04054 7.12482C7.2084 7.07388 7.99913 7.05524 8.85231 7.08217C9.68497 7.10844 35.5303 7.86967 66.2863 8.77374ZM12.9683 9.84562C11.6333 10.2523 10.7639 11.2897 10.5057 12.7841C10.3686 13.5779 10.5517 35.3785 10.7009 36.0142C11.0871 37.6602 12.4716 38.6184 14.6241 38.7297C16.1771 38.81 27.0436 38.3139 27.649 38.1351C28.4283 37.9051 29.036 37.5626 29.5194 37.0809C31.2 35.4067 30.728 32.5318 28.6015 31.4894L27.9701 31.1799H25.7915C24.5933 31.1799 22.3319 31.212 20.766 31.2514L17.9192 31.3227L17.8565 27.9166C17.822 26.0432 17.7936 22.1127 17.7931 19.182C17.7927 16.2514 17.7511 13.4956 17.7006 13.0582C17.5093 11.4029 16.6416 10.4052 14.9617 9.90918C14.4311 9.7524 13.3837 9.71906 12.9683 9.84562ZM35.0169 10.2829C33.4604 10.7054 32.6201 11.8053 32.449 13.6439C32.397 14.2026 32.371 18.8566 32.3871 24.7296C32.4132 34.2868 32.4246 34.8812 32.5898 35.3702C33.0298 36.6722 33.6188 37.39 34.525 37.7283C35.2984 38.017 36.4581 37.9618 37.2061 37.6006C38.3454 37.0504 38.9403 36.151 39.1097 34.7227C39.176 34.1634 39.1706 31.61 39.0921 26.5187C39.0295 22.4532 38.9698 17.7284 38.9595 16.0194C38.9414 13.0173 38.9333 12.8937 38.723 12.375C38.4076 11.5971 37.7879 10.957 36.9706 10.5648C36.1379 10.1653 35.6888 10.1005 35.0169 10.2829ZM44.1673 10.5143C43.1324 10.6875 42.2882 11.3829 41.9768 12.3187C41.7355 13.0439 41.6886 14.1728 41.8581 15.1719C41.9373 15.638 42.41 18.244 42.9088 20.963C44.7924 31.2329 45.3964 33.8513 46.2198 35.3166C47.1734 37.0136 48.8522 37.9122 50.5398 37.6289C52.8172 37.2467 54.6817 35.0936 55.0238 32.4511C55.0606 32.1663 55.5553 29.2863 56.1231 26.0513C56.691 22.8163 57.1555 20.129 57.1555 20.0796C57.1555 20.0303 57.1773 20.0117 57.2039 20.038C57.2679 20.1018 58.4203 25.8254 59.1968 29.9353C59.5371 31.7368 59.8763 33.3821 59.9506 33.5917C60.3504 34.7193 61.2161 35.837 62.0781 36.3384C63.5995 37.2233 65.2623 36.9446 66.6106 35.5787C67.8073 34.3662 68.2873 33.0389 68.8824 29.2966C69.2575 26.9374 69.9324 23.0792 70.9248 17.6202C71.3826 15.1017 71.4506 14.5783 71.4203 13.8065C71.347 11.9418 70.4181 10.9482 68.7464 10.9465C67.6808 10.9455 66.8932 11.4832 66.3257 12.5993C66.0193 13.2018 65.9886 13.3747 65.5278 17.1022C65.2137 19.6436 64.39 25.726 64.1251 27.4604C63.9811 28.4035 64.025 28.5377 63.4927 25.53C62.008 17.1422 61.4003 14.2022 60.9405 13.1845C60.4534 12.1064 59.5772 11.377 58.2274 10.926C57.5958 10.7149 57.3664 10.6842 56.6704 10.7172C55.9897 10.7495 55.7513 10.8063 55.2349 11.0593C54.1499 11.5909 53.2543 12.8208 52.8574 14.3244C52.7753 14.6351 52.1949 17.9391 51.5677 21.6665C50.6045 27.3904 50.3429 28.8449 50.3429 28.4769C50.3429 28.449 49.9831 26.2491 49.5434 23.5881C48.6277 18.047 48.316 15.9828 48.1714 14.5016C48.0113 12.8607 47.7723 12.2002 47.0669 11.4497C46.3641 10.702 45.2307 10.3363 44.1673 10.5143ZM98.2923 12.6349C96.9237 12.965 95.994 13.7575 95.7608 14.7926C95.5794 15.5987 96.0095 16.1487 96.8871 16.2326C97.3274 16.2747 97.3425 16.2678 97.3969 15.997C97.4779 15.5941 98.0184 14.9368 98.4519 14.714C98.8996 14.4839 99.734 14.4076 100.26 14.5486C101.059 14.7626 101.476 15.6304 101.108 16.3111C100.899 16.6964 100.455 16.9941 99.2759 17.5384C97.4253 18.3927 96.3515 19.2422 95.9256 20.1893C95.6582 20.7834 95.5839 22.0927 95.7897 22.5829C96.0161 23.1221 96.1914 23.1441 100.003 23.1109L103.347 23.0817L103.529 22.858C103.938 22.3544 103.875 21.6261 103.396 21.3355C103.116 21.1656 102.904 21.152 100.515 21.1517C97.646 21.1513 97.734 21.1753 98.2082 20.5239C98.5643 20.0346 99.1371 19.6787 100.674 18.9919C102.093 18.358 102.542 18.0782 103.002 17.5431C103.817 16.5957 103.824 14.844 103.016 13.7871C102.195 12.712 100.095 12.1999 98.2923 12.6349ZM108.01 12.6195C107.278 12.7963 106.644 13.1382 106.1 13.6485C105.521 14.1913 105.223 14.6656 104.933 15.505C104.635 16.3696 104.561 18.6083 104.792 19.7449C105.269 22.09 106.852 23.3545 109.291 23.3387C111.614 23.3235 113.167 22.113 113.689 19.9106C113.879 19.1081 113.88 16.7007 113.69 15.9007C113.389 14.6278 112.575 13.5173 111.576 13.0132C110.601 12.5215 109.1 12.3559 108.01 12.6195ZM117.596 12.6284C116.438 12.921 115.556 13.5424 115.19 14.3237C114.807 15.1427 114.935 15.7612 115.551 16.074C115.746 16.1734 116.054 16.2548 116.234 16.2548C116.527 16.2548 116.574 16.2183 116.675 15.9132C116.837 15.4251 117.579 14.696 118.043 14.5697C119.232 14.2461 120.293 14.6574 120.507 15.525C120.689 16.2629 120.289 16.6658 118.479 17.5684C115.658 18.9748 114.968 19.7745 114.968 21.6401C114.968 23.1796 114.828 23.1288 119.072 23.1288H122.428L122.72 22.885C122.976 22.6699 123.011 22.5831 123.011 22.1481C123.011 21.7399 122.969 21.6157 122.767 21.4267C122.523 21.1987 122.519 21.1983 119.838 21.1513L117.154 21.1043L117.302 20.7988C117.551 20.2877 118.163 19.8298 119.313 19.2947C121.29 18.3741 121.611 18.1964 122.036 17.7853C122.657 17.1851 122.862 16.663 122.861 15.6898C122.86 15.0569 122.814 14.7855 122.639 14.3931C122.333 13.7065 121.58 13.038 120.814 12.7724C120.037 12.5034 118.383 12.4294 117.596 12.6284ZM124.649 12.8144C124.091 13.0559 124.051 13.2547 124.051 15.8357V18.1569L124.366 18.4696C124.817 18.9192 125.265 18.9816 125.832 18.6741C126.077 18.5418 126.564 18.3809 126.915 18.3165C128.465 18.0324 129.634 18.6928 129.634 19.8517C129.634 20.9864 128.697 21.6146 127.169 21.5058C126.365 21.4485 125.503 21.0568 124.96 20.5024C124.604 20.1391 124.581 20.1303 124.328 20.2603C123.956 20.4518 123.654 20.9152 123.654 21.294C123.654 22.5782 126.001 23.5996 128.295 23.3134C130.536 23.0337 131.81 21.789 131.81 19.8801C131.81 18.1128 130.637 16.8935 128.683 16.6292C127.955 16.5307 126.907 16.6163 126.375 16.8179C126.235 16.8707 126.101 16.9139 126.077 16.9139C126.052 16.9139 126.044 16.4161 126.059 15.8075L126.086 14.701L128.52 14.654C130.877 14.6084 130.96 14.6003 131.164 14.3978C131.324 14.2383 131.374 14.0784 131.374 13.723C131.374 13.197 131.243 12.989 130.796 12.8032C130.352 12.6182 125.08 12.6278 124.649 12.8144ZM110.096 14.6413C110.61 14.8737 111.05 15.3982 111.226 15.988C111.423 16.6449 111.43 19.2345 111.238 19.8694C110.927 20.898 110.207 21.3858 109.092 21.3231C108.386 21.2835 108.128 21.1492 107.668 20.5802C107.273 20.0919 107.115 19.325 107.115 17.9026C107.115 15.9523 107.422 15.1476 108.347 14.6775C108.86 14.4163 109.566 14.4017 110.096 14.6413ZM81.896 20.7276C82.2928 22.1259 82.674 23.4695 82.7432 23.7132C82.8123 23.9569 82.8457 24.1793 82.8174 24.2076C82.7492 24.2754 80.446 24.2528 79.7129 24.1771L79.1358 24.1175L79.8158 21.9047C80.8765 18.4523 81.0205 18.0268 81.1 18.1086C81.1409 18.1507 81.499 19.3292 81.896 20.7276ZM120.562 24.1735C119.539 24.3863 119.025 25.5495 119.527 26.5166C119.815 27.0695 120.247 27.316 120.929 27.316C121.612 27.316 122.072 27.0401 122.354 26.4603C122.955 25.2234 121.913 23.8928 120.562 24.1735ZM95.5181 24.2865C95.4923 24.3535 95.4829 25.042 95.4974 25.8166L95.5237 27.225H95.8549H96.1861L96.2133 25.9067C96.247 24.2737 96.2242 24.1646 95.8502 24.1646C95.6934 24.1646 95.544 24.2194 95.5181 24.2865ZM96.8428 24.2865C96.817 24.3535 96.8076 25.042 96.8221 25.8166L96.8484 27.225H97.1322H97.4161L97.4634 26.2833L97.5107 25.3417L98.2204 26.3096C98.8721 27.1986 98.9532 27.2754 99.2139 27.2512L99.4977 27.225V25.7183V24.2117H99.2139H98.93L98.8827 25.1533L98.8354 26.095L98.2383 25.2722C97.91 24.8196 97.5771 24.3852 97.4983 24.307C97.3233 24.1328 96.9071 24.1197 96.8428 24.2865ZM99.9349 24.3318C99.7753 24.6286 99.978 24.8238 100.446 24.8238H100.864L100.891 26.0244L100.917 27.225H101.248H101.579L101.606 26.0244L101.632 24.8238H102.096C102.481 24.8238 102.571 24.7907 102.622 24.6309C102.748 24.2345 102.541 24.1646 101.24 24.1646C100.173 24.1646 100.014 24.185 99.9349 24.3318ZM103.065 24.2776C102.891 24.4502 102.908 27.0246 103.083 27.1695C103.17 27.2416 103.578 27.2694 104.29 27.2517C105.341 27.2255 105.365 27.2202 105.396 27.0002C105.441 26.6827 105.276 26.616 104.442 26.6143L103.708 26.6129V26.3304C103.708 26.0537 103.718 26.0479 104.188 26.0479C104.748 26.0479 105.033 25.923 105.033 25.678C105.033 25.4528 104.853 25.3888 104.221 25.3888C103.714 25.3888 103.708 25.3854 103.708 25.1063V24.8238H104.41C105.259 24.8238 105.411 24.7737 105.411 24.4942C105.411 24.3758 105.344 24.2532 105.262 24.2218C104.978 24.1135 103.184 24.1591 103.065 24.2776ZM105.939 24.3125C105.818 24.4328 105.79 24.7018 105.791 25.7486C105.792 26.4571 105.829 27.093 105.873 27.1619C105.918 27.2331 106.071 27.2737 106.226 27.256C106.482 27.2269 106.501 27.1954 106.529 26.7541C106.545 26.4952 106.593 26.248 106.636 26.2048C106.679 26.1616 106.9 26.3617 107.127 26.6494C107.554 27.1893 107.81 27.3342 108.149 27.2271C108.417 27.1425 108.401 27.0847 107.964 26.5381C107.611 26.0969 107.597 26.0577 107.772 26.0023C108.059 25.9116 108.345 25.4928 108.345 25.1616C108.345 24.5046 107.799 24.1646 106.746 24.1646C106.273 24.1646 106.045 24.2064 105.939 24.3125ZM108.837 24.2776C108.704 24.4097 108.677 26.9591 108.806 27.1619C108.851 27.2331 109.004 27.2737 109.159 27.256L109.433 27.225L109.48 26.3073L109.527 25.3897L110.219 26.3309C110.822 27.1508 110.947 27.2721 111.187 27.2721C111.55 27.2721 111.575 27.1507 111.542 25.5872C111.518 24.5069 111.491 24.3111 111.349 24.2222C111.228 24.1467 111.138 24.1467 111.018 24.2221C110.883 24.3064 110.847 24.489 110.825 25.2008L110.797 26.0757L110.092 25.1202C109.373 24.1472 109.131 23.9847 108.837 24.2776ZM112.942 24.2452C112.751 24.5525 111.845 27.0393 111.885 27.1443C111.912 27.2145 112.057 27.2721 112.207 27.2721C112.433 27.2721 112.508 27.2083 112.65 26.8954C112.82 26.5208 112.823 26.5187 113.35 26.5197C113.878 26.5206 113.88 26.5219 114.038 26.8963C114.175 27.22 114.238 27.2721 114.491 27.2721C114.652 27.2721 114.807 27.2146 114.834 27.1444C114.861 27.0741 114.63 26.3856 114.321 25.6142L113.759 24.2117L113.379 24.1832C113.17 24.1674 112.973 24.1954 112.942 24.2452ZM115.069 24.2987C114.825 24.5913 114.985 24.7748 115.51 24.805L116.003 24.8334L116.03 26.0292L116.056 27.225L116.33 27.256C116.485 27.2737 116.638 27.2331 116.683 27.1619C116.727 27.093 116.764 26.541 116.764 25.9354L116.766 24.8341L117.215 24.8054C117.645 24.7779 117.665 24.7644 117.665 24.4942V24.2117L116.425 24.1855C115.422 24.1643 115.163 24.186 115.069 24.2987ZM118.198 24.2903C118.119 24.385 118.093 24.8458 118.112 25.8252L118.138 27.225H118.469H118.8V25.7183V24.2117L118.555 24.1834C118.421 24.1678 118.26 24.2159 118.198 24.2903ZM123.034 24.2736C122.91 24.3964 122.859 26.8261 122.973 27.1231C123.049 27.3195 123.54 27.3195 123.616 27.1231C123.647 27.0412 123.673 26.6086 123.673 26.1618V25.3493L124.386 26.3106C124.925 27.0371 125.152 27.2721 125.314 27.2721C125.712 27.2721 125.755 27.1225 125.755 25.7183C125.755 24.3128 125.712 24.1646 125.312 24.1646C125.051 24.1646 125.007 24.3162 124.974 25.3198L124.95 26.0513L124.287 25.1315C123.61 24.1914 123.317 23.9914 123.034 24.2736ZM127.08 24.3516C126.816 24.8421 126.034 27.0306 126.08 27.1497C126.112 27.2332 126.232 27.2733 126.393 27.2548C126.586 27.2327 126.698 27.1337 126.827 26.8719C126.997 26.5254 127.01 26.5187 127.537 26.5197C128.072 26.5206 128.073 26.5212 128.231 26.8963C128.367 27.2166 128.432 27.2721 128.675 27.2721C128.832 27.2721 128.988 27.2283 129.021 27.1747C129.092 27.0611 128.046 24.3392 127.893 24.2366C127.675 24.0913 127.183 24.1608 127.08 24.3516ZM129.468 24.2736C129.306 24.4348 129.302 26.9983 129.464 27.1591C129.647 27.3412 131.376 27.3109 131.533 27.1229C131.623 27.015 131.63 26.9304 131.558 26.8169C131.484 26.6993 131.29 26.653 130.786 26.6324L130.113 26.6048L130.086 25.4082L130.06 24.2117L129.823 24.1841C129.692 24.1689 129.533 24.2092 129.468 24.2736ZM107.474 24.9368C107.778 25.2391 107.373 25.713 106.861 25.6546C106.621 25.6272 106.591 25.5845 106.565 25.224L106.536 24.8238H106.948C107.175 24.8238 107.412 24.8746 107.474 24.9368ZM121.536 25.1135C122.142 25.8304 121.501 26.8956 120.642 26.5978C120.139 26.4232 119.934 25.75 120.217 25.2043C120.381 24.8902 120.476 24.8413 120.944 24.8312C121.22 24.8253 121.341 24.8829 121.536 25.1135ZM113.5 25.3532C113.717 25.8704 113.69 25.9537 113.302 25.9537C113.069 25.9537 112.975 25.9165 113.005 25.836C113.029 25.7713 113.106 25.5595 113.176 25.3652C113.246 25.171 113.315 25.0121 113.33 25.0121C113.345 25.0121 113.421 25.1656 113.5 25.3532ZM127.649 25.2517C127.699 25.3834 127.766 25.5953 127.798 25.7225C127.852 25.936 127.831 25.9537 127.515 25.9537C127.328 25.9537 127.174 25.9401 127.174 25.9234C127.174 25.8321 127.482 25.0121 127.516 25.0121C127.539 25.0121 127.598 25.1199 127.649 25.2517ZM106.121 28.0463C105.388 28.3049 105.015 28.8013 105.004 29.5333C104.991 30.3711 105.524 30.8665 106.723 31.1311C107.522 31.3077 107.777 31.4643 107.777 31.7798C107.777 32.1865 107.502 32.3704 106.895 32.3704C106.355 32.3704 105.908 32.2025 105.53 31.8587L105.317 31.6649L105.08 31.8861C104.047 32.8524 106.71 33.8967 108.23 33.1214C109.184 32.6347 109.376 31.3688 108.598 30.6892C108.308 30.4363 107.854 30.2575 106.859 30.0047C106.191 29.8353 106.02 29.5474 106.347 29.1456C106.494 28.9644 106.615 28.9266 107.046 28.9266C107.47 28.9266 107.661 28.984 108.062 29.2321C108.598 29.5636 108.748 29.5376 108.922 29.0833C109.157 28.4688 108.291 27.9258 107.097 27.9386C106.716 27.9427 106.277 27.9912 106.121 28.0463ZM115.187 28.0284C114.812 28.1744 114.779 28.3926 114.779 30.6819C114.779 33.2035 114.803 33.2986 115.44 33.2986C116.101 33.2986 116.103 33.2903 116.103 30.6733C116.103 28.9514 116.073 28.3052 115.985 28.1959C115.833 28.0056 115.451 27.9255 115.187 28.0284ZM124.155 28.0087C124.03 28.0462 123.89 28.1393 123.845 28.2159C123.8 28.2923 123.361 29.3913 122.869 30.6581C122.037 32.8041 121.987 32.9727 122.13 33.13C122.226 33.2355 122.417 33.2986 122.641 33.2986C123.053 33.2986 123.193 33.1493 123.451 32.4358L123.616 31.9803H124.572H125.528L125.703 32.4659C125.8 32.733 125.957 33.0296 126.053 33.1251C126.349 33.419 127.174 33.3008 127.174 32.9644C127.174 32.753 125.384 28.2789 125.242 28.1358C125.094 27.9864 124.473 27.9138 124.155 28.0087ZM128.167 27.9983C127.766 28.0896 127.742 28.2356 127.742 30.5901V32.8363L127.98 33.0737C128.219 33.3111 128.219 33.3112 129.782 33.2814C131.472 33.2491 131.522 33.233 131.525 32.7168C131.528 32.2444 131.337 32.1686 130.148 32.1686H129.066V30.2958C129.066 28.6474 129.046 28.4001 128.901 28.2323C128.715 28.0187 128.45 27.934 128.167 27.9983ZM95.8223 28.1976C95.6854 28.348 95.6656 28.6629 95.6656 30.6862C95.6656 33.2605 95.6746 33.2986 96.2807 33.2986C96.7991 33.2986 96.8957 33.1202 96.8957 32.1619V31.3211H97.7879C98.7589 31.3211 98.9773 31.2258 98.9773 30.8018C98.9773 30.4198 98.6516 30.2853 97.7262 30.2853H96.8957V29.6733V29.0612H98.0374C99.3519 29.0612 99.545 28.9969 99.545 28.5588C99.545 28.0451 99.4751 28.0254 97.6484 28.0254C96.1511 28.0254 95.9627 28.0432 95.8223 28.1976ZM100.397 28.2137C100.218 28.3916 100.207 28.5276 100.207 30.662C100.207 32.7964 100.218 32.9324 100.397 33.1103C100.572 33.2847 100.712 33.2986 102.295 33.2986C103.293 33.2986 104.081 33.258 104.188 33.2011C104.397 33.0894 104.442 32.5598 104.257 32.3758C104.179 32.2985 103.717 32.2628 102.79 32.2628H101.437V31.7061V31.1495L102.482 31.1176C103.61 31.0832 103.704 31.0395 103.707 30.5476C103.709 30.1778 103.473 30.097 102.39 30.097H101.437V29.5791V29.0612H102.755C104.182 29.0612 104.371 29.0008 104.371 28.5433C104.371 28.0644 104.217 28.0254 102.33 28.0254C100.712 28.0254 100.572 28.039 100.397 28.2137ZM109.58 28.1605C109.518 28.2348 109.481 28.4351 109.497 28.6056C109.536 29.0093 109.822 29.1521 110.592 29.1539L111.183 29.1553V31.079C111.183 32.7023 111.206 33.0258 111.332 33.1507C111.507 33.3251 112.137 33.3478 112.3 33.1856C112.381 33.105 112.413 32.5118 112.413 31.114V29.1553L113.005 29.1539C113.775 29.1521 114.06 29.0093 114.099 28.6056C114.155 28.0332 114.124 28.0254 111.798 28.0254C110.085 28.0254 109.671 28.0505 109.58 28.1605ZM116.876 28.1902C116.681 28.3546 116.683 28.3597 117.632 30.662C118.155 31.9309 118.649 33.0432 118.73 33.1338C118.826 33.2413 119.015 33.2986 119.273 33.2986C119.532 33.2986 119.721 33.2413 119.816 33.1338C119.98 32.949 121.781 28.5722 121.781 28.3577C121.781 28.0253 120.886 27.8973 120.618 28.1916C120.535 28.2829 120.257 28.9715 120 29.7218C119.743 30.472 119.473 31.2304 119.4 31.4072L119.266 31.7287L118.707 30.1019C118.4 29.2071 118.068 28.374 117.971 28.2502C117.751 27.9728 117.17 27.941 116.876 28.1902ZM124.896 30.094C125.056 30.5066 125.187 30.888 125.187 30.9415C125.187 30.9983 124.932 31.0386 124.572 31.0386C124.234 31.0386 123.957 30.9979 123.957 30.9481C123.957 30.8981 124.048 30.6122 124.16 30.3124C124.271 30.0126 124.398 29.6721 124.441 29.5555C124.484 29.439 124.539 29.3437 124.563 29.3437C124.586 29.3437 124.736 29.6813 124.896 30.094Z" fill="#ffffff"/>
</g>
</svg>
