<svg version="1.1" xmlns="http://www.w3.org/2000/svg" viewBox="0 0 53 52.7" xml:space="preserve">
  <path d="M36.8,47.5h10.4c2-10.5-5.1-21.7-16.8-24.1c2.4,0.6,12.9,5.3,10.3,17.3C40.1,43.3,38.7,45.6,36.8,47.5" fill="#fff"/>
  <path d="M5.5,5.5v42l4.4,0c2.7,0,3.3,0.1,4.8-0.2c6.4-0.9,12.2-6.2,12.8-10.8c0.9-5.5-2-10.2-7.7-11.4
    c-0.1,0-0.2-0.1-0.3-0.1c-0.2,0-3,0-5.1-0.5c0,0-1.2,1-0.7,2.8c0,0-2.8-3-1-7c0,0,0.9-1.9,3.8-3.8c0,0,0-0.1,0.1-0.1
    c0.8-0.9,2.7-2.6,5.5-3.9c1.4-0.6,3.8-1.6,6.5-1.8c12.3-1.2,19,8.4,19,8.4V5.5H5.5" fill="#fff"/>
  <path d="M35.9,15.8c5.3,0.6,9.9,3.8,11.7,5.5l0,3.7c0,0-6-8.5-17.3-8.2c0.1,0.4,0.1,0.8,0,1.3
    c-0.3,1.6-2,2.6-3.7,2.2C25.2,20,24.3,19,24,17.9c-1.8,0.6-2.9,1.3-2.9,1.3C25,16.5,30,15,35.9,15.8" fill="#fff"/>
</svg>
