<svg version="1.1" id="Layer_1" xmlns="http://www.w3.org/2000/svg" xmlns:xlink="http://www.w3.org/1999/xlink" x="0px" y="0px" viewBox="0 0 53 80" style="enable-background:new 0 0 53 80;" xml:space="preserve">
 <style type="text/css">
  .st0{filter:url(#Adobe_OpacityMaskFilter);}
	.st1{fill-rule:evenodd;clip-rule:evenodd;fill:#FFFFFF;}
	.st2{mask:url(#mask-2_1_);fill-rule:evenodd;clip-rule:evenodd;fill:#FFFFFE;}
	.st3{fill-rule:evenodd;clip-rule:evenodd;fill:#1A4F92;}
 </style>
 <g id="Symbols">
  <g id="Components-_x2F_-Navigation-_x2F_-L-_x2F_-Secondary-_x2F_-Hover-" transform="translate(-18.000000, -18.000000)">
   <g id="ADNOC-Primary-Brand-Mark-Artwork">
    <g transform="translate(18.000000, 18.000000)">
     <g id="Group-3">
      <g id="Clip-2">
      </g>
      <defs>
       <filter id="Adobe_OpacityMaskFilter" filterUnits="userSpaceOnUse" x="0" y="1.1" width="52.8" height="79.3">
        <feColorMatrix type="matrix" values="1 0 0 0 0  0 1 0 0 0  0 0 1 0 0  0 0 0 1 0">
        </feColorMatrix>
       </filter>
      </defs>
      <mask maskUnits="userSpaceOnUse" x="0" y="1.1" width="52.8" height="79.3" id="mask-2_1_">
       <g class="st0">
        <polygon id="path-1_1_" class="st1" points="0,0.1 52.8,0.1 52.8,79.4 0,79.4 							">
        </polygon>
       </g>
      </mask>
      <polygon id="Fill-1" class="st2" points="0,80.3 52.8,80.3 52.8,1.1 0,1.1 					">
      </polygon>
     </g>
     <path id="Fill-4" class="st3" d="M36.7,47.5h10.4c2-10.5-5.1-21.7-16.8-24.1c2.4,0.6,12.9,5.3,10.3,17.3
					C40,43.3,38.6,45.6,36.7,47.5">
     </path>
     <path id="Fill-5" class="st3" d="M5.5,5.5v42l4.4,0c2.7,0,3.3,0.1,4.8-0.2c6.4-0.9,12.2-6.2,12.8-10.8c0.9-5.5-2-10.2-7.7-11.4
					c-0.1,0-0.2-0.1-0.3-0.1c-0.2,0-3,0-5.1-0.5c0,0-1.2,1-0.7,2.8c0,0-2.8-3-1-7c0,0,0.9-1.9,3.8-3.8c0,0,0-0.1,0.1-0.1
					c0.8-0.9,2.7-2.6,5.5-3.9c1.4-0.6,3.8-1.6,6.5-1.8c12.3-1.2,19,8.4,19,8.4V5.5H5.5">
     </path>
     <path id="Fill-6" class="st3" d="M35.8,15.8c5.3,0.6,9.9,3.8,11.7,5.5l0,3.7c0,0-6-8.5-17.3-8.2c0.1,0.4,0.1,0.8,0,1.3
					c-0.3,1.6-2,2.6-3.7,2.2C25.2,20,24.2,19,24,17.9c-1.8,0.6-2.9,1.3-2.9,1.3C24.9,16.5,29.9,15,35.8,15.8">
     </path>
     <path id="Fill-7" class="st3" d="M8.5,65.4h1.6l3.1,8.6h-1.8l-0.7-2H7.9l-0.7,2H5.5L8.5,65.4z M10.3,70.5l-1-3.1l-1,3.1H10.3
					L10.3,70.5z">
     </path>
     <path id="Fill-8" class="st3" d="M14,65.4h3c1.2,0,2.2,0.4,2.9,1.1c0.7,0.7,1,1.8,1,3.2c0,0.7-0.1,1.3-0.3,1.9
					c-0.2,0.5-0.5,1-0.8,1.4c-0.4,0.4-0.8,0.6-1.3,0.8C18,73.9,17.4,74,16.8,74H14V65.4z M16.8,72.4c0.4,0,0.8-0.1,1.1-0.2
					c0.3-0.1,0.6-0.3,0.8-0.6c0.2-0.2,0.3-0.5,0.4-0.9c0.1-0.3,0.1-0.7,0.1-1.1c0-0.4,0-0.8-0.1-1.1c-0.1-0.3-0.2-0.6-0.4-0.9
					c-0.2-0.2-0.4-0.4-0.7-0.5c-0.3-0.1-0.6-0.2-1-0.2h-1.3v5.5H16.8L16.8,72.4z">
     </path>
     <polyline id="Fill-9" class="st3" points="22.6,65.4 24.2,65.4 27.8,71 27.8,65.4 29.6,65.4 29.6,74 28,74 24.4,68.4 24.4,74 
					22.6,74 22.6,65.4 				">
     </polyline>
     <path id="Fill-10" class="st3" d="M35,74c-0.6,0-1.2-0.1-1.6-0.3c-0.5-0.2-0.9-0.5-1.2-0.9c-0.3-0.4-0.6-0.8-0.8-1.3
					c-0.2-0.5-0.3-1.1-0.3-1.8s0.1-1.3,0.3-1.8c0.2-0.5,0.4-1,0.8-1.3c0.3-0.4,0.7-0.7,1.2-0.9c0.5-0.2,1-0.3,1.6-0.3
					c0.6,0,1.2,0.1,1.6,0.3c0.5,0.2,0.9,0.5,1.2,0.9c0.3,0.4,0.6,0.8,0.8,1.3c0.2,0.5,0.3,1.1,0.3,1.8s-0.1,1.3-0.3,1.8
					c-0.2,0.5-0.4,1-0.8,1.3c-0.3,0.4-0.7,0.7-1.2,0.9C36.2,73.9,35.7,74,35,74 M35,72.5c0.7,0,1.3-0.2,1.6-0.7
					c0.4-0.5,0.5-1.2,0.5-2.1c0-0.9-0.2-1.6-0.5-2.1c-0.4-0.5-0.9-0.7-1.6-0.7c-0.7,0-1.3,0.2-1.6,0.7c-0.4,0.5-0.5,1.2-0.5,2.1
					c0,0.9,0.2,1.6,0.5,2.1C33.8,72.3,34.3,72.5,35,72.5">
     </path>
     <path id="Fill-11" class="st3" d="M47.5,70.9c0,0.4-0.1,0.8-0.3,1.2c-0.2,0.4-0.4,0.7-0.7,1c-0.3,0.3-0.7,0.5-1.1,0.6
					c-0.4,0.2-1,0.2-1.6,0.2c-0.7,0-1.2-0.1-1.8-0.3c-0.5-0.2-0.9-0.5-1.3-0.9c-0.3-0.4-0.6-0.8-0.8-1.4c-0.2-0.5-0.3-1.1-0.3-1.8
					c0-0.7,0.1-1.3,0.3-1.8c0.2-0.5,0.5-1,0.8-1.3c0.4-0.4,0.8-0.7,1.3-0.9c0.5-0.2,1.1-0.3,1.7-0.3c0.6,0,1,0.1,1.5,0.2
					c0.4,0.1,0.8,0.3,1,0.6c0.3,0.2,0.5,0.5,0.7,0.9c0.2,0.3,0.3,0.7,0.4,1.2l-1.8,0.2c-0.1-0.5-0.3-0.9-0.5-1.1
					c-0.3-0.3-0.7-0.4-1.2-0.4c-0.7,0-1.2,0.2-1.6,0.7c-0.4,0.5-0.5,1.2-0.5,2.1c0,0.9,0.2,1.6,0.6,2.1c0.4,0.5,0.9,0.7,1.6,0.7
					c0.6,0,1-0.1,1.2-0.4c0.3-0.3,0.4-0.7,0.5-1.2H47.5">
     </path>
     <path id="Fill-12" class="st3" d="M14.6,60v-7.1h1.8v8.6H8.9c-1.2,0-2.1-0.2-2.6-0.7c-0.6-0.5-0.9-1.2-0.9-2.2
					c0-0.5,0.1-1,0.4-1.4c0.2-0.4,0.6-0.7,1.1-1c0.5-0.2,1-0.4,1.7-0.4l0.2,1.4c-0.6,0-1,0.2-1.2,0.4c-0.2,0.2-0.4,0.6-0.4,1
					c0,0.5,0.1,0.9,0.4,1.1C7.8,59.9,8.3,60,8.9,60H14.6z M12.9,56.4V57h-2.3v-0.6h0.3v-0.4c0-0.3,0.1-0.5,0.3-0.7
					c0.2-0.2,0.4-0.2,0.7-0.2c0.3,0,0.5,0.1,0.7,0.2c0.1,0.1,0.2,0.3,0.3,0.6L12.3,56c0-0.1-0.1-0.2-0.1-0.3
					c-0.1-0.1-0.1-0.1-0.3-0.1c-0.3,0-0.4,0.1-0.4,0.4v0.3H12.9L12.9,56.4z">
     </path>
     <path id="Fill-13" class="st3" d="M32.6,55.3v4.8h-9.7v-1.8c0-1-0.2-1.8-0.7-2.3s-1.2-0.7-2.1-0.7c-0.9,0-1.6,0.3-2.1,0.8
					c-0.5,0.5-0.8,1.3-0.8,2.2c0,1.1,0.3,2,1,2.6c0.7,0.6,1.6,0.9,2.8,0.9h0.2v0.2c0,0.7-0.1,1.1-0.3,1.3l0.9,1.4
					c0.1-0.1,0.3-0.2,0.4-0.3c0.5-0.5,0.7-1.6,0.7-2.6h11.4v-6.4H32.6z M21.2,60.1h-0.5c-1.2,0-1.8-0.7-1.8-1.9
					c0-0.5,0.1-0.9,0.3-1.1c0.2-0.3,0.5-0.4,0.9-0.4c0.3,0,0.5,0.1,0.7,0.1c0.2,0.1,0.3,0.3,0.3,0.5c0.1,0.3,0.1,0.8,0.1,1.3V60.1
					L21.2,60.1z">
     </path>
     <polygon id="Fill-14" class="st3" points="32.7,54.5 34.3,54.5 34.3,52.9 32.7,52.9 				">
     </polygon>
     <path id="Fill-15" class="st3" d="M42.7,60v-0.9c0-0.8-0.1-1.3-0.4-1.7c-0.3-0.4-0.7-0.6-1.4-0.6c-0.4,0-0.8,0.1-1.3,0.2
					l-0.4-1.5c0.6-0.2,1.2-0.3,1.8-0.3c1.1,0,1.9,0.3,2.5,0.9c0.6,0.6,0.9,1.5,0.9,2.7v2.6h-8.6V60H42.7">
     </path>
     <path id="Fill-16" class="st3" d="M47.5,52.5v0.5h-2.3v-0.5h0.3v-0.3c0-0.2,0.1-0.4,0.3-0.6c0.2-0.1,0.4-0.2,0.7-0.2
					c0.3,0,0.5,0.1,0.7,0.2c0.2,0.1,0.3,0.3,0.3,0.5l-0.6,0.1c0-0.1-0.1-0.2-0.1-0.2c-0.1,0-0.1-0.1-0.3-0.1c-0.3,0-0.4,0.1-0.4,0.4
					v0.3H47.5">
     </path>
     <polygon id="Fill-17" class="st3" points="45.2,61.5 46.7,61.5 46.7,53.7 45.2,53.7 				">
     </polygon>
    </g>
   </g>
  </g>
 </g>
</svg>