<svg version="1.1" id="Layer_1" xmlns:x="ns_extend;" xmlns:i="ns_ai;" xmlns:graph="ns_graphs;" xmlns="http://www.w3.org/2000/svg" xmlns:xlink="http://www.w3.org/1999/xlink" x="0px" y="0px" viewBox="0 0 61 65" style="enable-background:new 0 0 61 65;" xml:space="preserve">
 <style type="text/css">
  .st0{fill:#FFFFFF;}
	.st1{fill:#CC0000;}
 </style>
 <metadata>
  <sfw xmlns="ns_sfw;">
   <slices>
   </slices>
   <sliceSourceBounds bottomLeftOrigin="true" height="65" width="61" x="69.5" y="-0.8">
   </sliceSourceBounds>
  </sfw>
 </metadata>
 <g>
  <g>
   <path class="st0" d="M37.4,10l-4.7,8.9h3.4l0.7-1.4h2.5v1.4H43L42,10H37.4z M39.2,15.3h-1.5l1.5-3.3V15.3z">
   </path>
   <path class="st0" d="M30.4,15.8c-0.3,0.9-0.6,1.2-1.1,1.2c-0.9,0-0.8-1-0.5-2.4c0.3-1.5,0.6-2.4,1.5-2.4c0.4,0,0.8,0.2,0.6,1.2
			h3.2c0.5-2.6-1.2-3.5-3.4-3.5c-3,0-5,1.8-5.5,4.6c-0.6,2.8,0.4,4.7,3.5,4.7c2.2,0,4.4-1.1,5-3.4H30.4z">
   </path>
   <path class="st0" d="M11.3,10H7.1l-1.9,8.9h4.4c2.7,0,4.8-1.6,5.4-4.3C15.5,12,14.8,10,11.3,10z M11.3,14.4
			c-0.2,0.9-0.4,1.5-0.7,1.9c-0.3,0.4-0.6,0.6-1.2,0.6H9.1l1-4.8h0.3c0.6,0,0.9,0.2,1,0.4C11.5,12.9,11.5,13.5,11.3,14.4z">
   </path>
   <path class="st0" d="M21.8,10.1l-1.2,5.8c-0.1,0.7-0.5,1-0.9,1c-0.4,0-0.6-0.3-0.5-1l1.2-5.8h-3.5L15.6,16
			c-0.5,2.1,0.8,3.2,3.5,3.2c2.6,0,4.4-1.1,4.9-3.3l1.3-5.8H21.8z">
   </path>
   <polygon class="st0" points="50.4,18.9 53.9,18.9 55.8,10 52.3,10 		">
   </polygon>
   <polygon class="st0" points="51.6,10 43.7,10 43.2,12.4 45.4,12.4 44,18.9 47.6,18.9 48.9,12.4 51.1,12.4 		">
   </polygon>
  </g>
  <g>
   <g>
    <path class="st1" d="M10.4,12.1h-0.3l-1,4.8h0.3c0.6,0,0.9-0.2,1.2-0.6s0.5-1,0.7-1.9s0.2-1.5,0.1-1.9
				C11.3,12.3,11,12.1,10.4,12.1 M56.4,5.7C47.9,1.5,38.8,0,30.5,0S13.1,1.5,4.6,5.7C1.5,7.2,0,10,0,14.1c0,0.9,0.1,1.8,0.2,2.8
				l0.1,0.5c0.3,2,1,7.1,2.9,13.1c2.3-2.9,11.3-5.4,27.3-6.2c15.1-0.8,25.9-0.7,29.2-0.7c0.6-2.8,0.9-4.9,1-6.1l0.1-0.5
				C61.6,11.2,60.1,7.5,56.4,5.7 M15,14.6c-0.6,2.7-2.7,4.3-5.4,4.3H5.2L7.1,10h4.2C14.8,10,15.5,12,15,14.6 M19.1,19.2
				c-2.7,0-4-1.1-3.5-3.2l1.3-5.9h3.5l-1.2,5.8c-0.1,0.7,0.1,1,0.5,1s0.8-0.3,0.9-1l1.2-5.8h3.5L24,15.9
				C23.5,18.1,21.7,19.2,19.1,19.2 M28.7,19.2c-3.1,0-4.1-1.9-3.5-4.7c0.5-2.8,2.5-4.6,5.5-4.6c2.2,0,3.9,0.9,3.4,3.5h-3.2
				c0.2-1-0.2-1.2-0.6-1.2c-0.9,0-1.2,0.9-1.5,2.4C28.5,16,28.4,17,29.3,17c0.5,0,0.8-0.3,1.1-1.2h3.3
				C33.1,18.1,30.9,19.2,28.7,19.2 M39.3,18.9v-1.4h-2.5l-0.7,1.4h-3.4l4.7-8.9H42l1,8.9H39.3z M47.6,18.9H44l1.4-6.5h-2.2l0.5-2.4
				h7.9l-0.5,2.4h-2.2L47.6,18.9z M53.9,18.9h-3.5l1.9-8.9h3.5L53.9,18.9z M37.7,15.3h1.5V12l0,0L37.7,15.3z">
    </path>
    <path class="st1" d="M42.4,27.9c-17.4,2.7-25.8,7.3-30,11.7c-3.1,3.3-2.1,5.9-1.2,7.3c2.7,4.2,5.7,7.8,9.5,11.7
				c1.2,1.2,5.2,4.9,6.8,5.7c1.4,0.7,2.9,0.7,2.9,0.7c0.1,0,1.5,0,2.9-0.7c1.7-0.9,5.6-4.5,6.8-5.7c6.4-6.4,10.4-12.1,14.7-21.1
				c1.9-4,3.2-7.8,4-11.2v-0.1C55.2,26.4,49.8,26.8,42.4,27.9">
    </path>
   </g>
  </g>
 </g>
</svg>