<svg height="35.149" viewBox="0 0 111.33 35.149" width="111.33" xmlns="http://www.w3.org/2000/svg"><path d="M0,13.84V39.6H20.9V33.528H7.065V29.443h12.25V23.817H7.065v-3.9H20.93V13.84Z" fill="#ffffff" transform="translate(0 -4.447)"></path><path d="M120.06,13.84V39.6h20.9V33.528H127.125V29.443h12.257V23.817H127.125v-3.9H140.99V13.84Z" fill="#ffffff" transform="translate(-38.578 -4.447)"></path><path d="M44.82,33.27h3.088c4.2,0,6.922-2.43,6.922-6.515s-2.715-6.583-6.922-6.583H37.68V13.84H47.69c9.087,0,14.463,5.334,14.463,12.841S56.778,39.575,47.69,39.575H37.68v-6.3Z" fill="#ffffff" transform="translate(-12.108 -4.447)"></path><path d="M91.4,20.172h10.228V13.84h-10c-9.087,0-14.463,5.429-14.463,12.895s5.375,12.841,14.463,12.841h10v-6.3h0V26.721H95.111V33.27H91.4c-4.167,0-6.882-2.5-6.882-6.59s2.715-6.508,6.916-6.508" fill="#ffffff" transform="translate(-24.793 -4.447)"></path><rect fill="#ffffff" height="5.633" transform="translate(91.92)" width="19.41"></rect></svg>