<svg version="1.1" id="Layer_1" xmlns="http://www.w3.org/2000/svg" xmlns:xlink="http://www.w3.org/1999/xlink" x="0px" y="0px" viewBox="0 0 220 152.1" style="enable-background:new 0 0 220 152.1;" xml:space="preserve">
 <style type="text/css">
  .st0{fill:#111820;}
	.st1{fill:#1B1A19;}
	.st2{fill:#A1D23F;}
	.st3{fill:#FFFFFF;}
	.st4{fill:#325037;}
	.st5{fill:#D82A34;}
	.st6{fill:#29673C;}
 </style>
 <g>
  <circle class="st0" cx="158.8" cy="81.8" r="2.8">
  </circle>
  <path class="st1" d="M130.4,41.6c4.9-16.6,8.5-23.1,8.5-23.1l4.6-8.1l-34.4,15.8l2.2-6.8L80.3,34.9l-1.7,5.5l-26,12.2l-0.4,0.5
		c-0.6,0.5-2,2.3-6.5,8.7c-8,11.1-22.8,31.6-36.5,47.1L0,119l34.8-14.3c-4.1,10.1-12.7,30.7-17.7,38.8l-5.4,8.6l52.1-24.5
		c4.5-2.1,7.9-4.3,10.6-6.8c0.3-0.3,0.6-0.5,0.9-0.8c1.1,0.1,2.3,0.1,3.4-0.1l0.9-0.2c1.3-0.3,2.6-0.8,3.9-1.4L153,85.9l0.4-0.7
		c0.3-0.5,35.1-49.5,57-74.5L220,0L130.4,41.6z">
  </path>
  <path class="st2" d="M18.7,144.5c5.9-9.4,16.3-35.1,19.5-43.2L7.1,114.1l3.5-3.7c20.7-22.5,42.8-55.6,43-55.9l0.2-0.3l26.3-12.4
		l1.7-5.5L108,23.1l-2.1,6.6l33-15.2l-1.7,3c-0.1,0.1-4.2,7.5-9.9,27.5l85.3-39.6l-3.5,4c-21.9,25-56.7,74.1-57,74.6l-0.2,0.3
		l-69.2,32.3c-1.1,0.5-2.3,1-3.5,1.2l-0.8,0.2c-1.2,0.2-2.5,0.1-3.7-0.1l-1.5,1.5c-2.6,2.4-5.8,4.4-10.1,6.5l-46.3,21.8L18.7,144.5z
		">
  </path>
  <path class="st0" d="M141.7,12l-6.3,2.9l-27.5,12.6l0.5-1.6l1.6-5.2l-4.8,2.4L81.8,35l-0.9,0.4l-0.3,0.9L79.2,41L53.6,53L53,53.2
		l-0.3,0.5c-0.8,0-22.9,33-42.9,55.8l-6.9,7.5l9.4-3.9l23.9-9.8c-4,9.9-13.2,32-18.5,40.5l-4,6.5l6.9-3.3L63.5,127
		c3.8-1.7,7.3-3.9,10.4-6.7c0.4-0.3,0.8-0.7,1.1-1.1c1.2,0.2,2.4,0.2,3.5,0l0.8-0.2c1.3-0.3,2.5-0.7,3.7-1.3l0.1-0.1l0.1-0.1
		l68.8-32.2l0.5-0.3l0.3-0.5c0.3-0.5,35.1-49.5,57.1-74.5l7.1-8l-9.8,4.6L129.2,43c5.3-18,9-24.8,9.1-24.9L141.7,12z M136.3,17
		c0,0-4.5,7.9-10.6,30.1l82.6-38.4c-22.2,25.3-57.2,74.7-57.2,74.7l-68.9,32.2h-0.1c-1.1,0.5-2.2,0.9-3.3,1.2
		c-0.2,0.1-0.4,0.1-0.7,0.1c-1.3,0.2-2.6,0.1-3.8-0.2c-0.1,0-0.1,0-0.2-0.1c-0.6,0.7-1.2,1.3-1.8,1.9c-2.8,2.6-6.1,4.5-9.9,6.3
		l-42.9,20.1c7.1-11.5,20.6-45.9,20.6-45.9L11.4,111C32.4,88.2,54.5,55,54.5,55L81,42.5l1.7-5.5l23.4-11.8l-2.1,6.5L136.3,17z">
  </path>
  <path class="st3" d="M56.7,56.1l26.9-12.6l1.8-5.6l16.6-8.3l-2,6.3l31.3-14.4c0,0-3.6,8.7-9.3,29.5L199,15.1
		c0,0-12.2,11.5-49.4,65.1l-68.2,31.9c-1.8,0.8-3.7,1.6-5.9,0.9c-0.1,0-0.1,0-0.1-0.1c-0.6-0.2-1.1-0.5-1.6-0.9
		c-0.8,1.2-1.8,2.4-2.9,3.4c-2.4,2.3-5.5,4.1-9.2,5.8l-35.3,16.6c7.3-12.3,18.7-44.7,18.7-44.7l-23.3,9.7
		C30.9,93.4,56.7,56.1,56.7,56.1">
  </path>
  <path class="st4" d="M88.1,39.7l8.3-4.2l-1.9,6l6.6-3l-1.7,5.4l-6.5,3l-4.6,14.5c-0.5,1.7-0.5,2.2,0.9,1.5l2.9-1.4
		c1.2-0.6,2.3-1.5,3.3-2.4l-2.6,6.7l-10.3,4.8c-2.6,1.2-4.3,0.5-2.1-6.3l4.3-13.6l-2.6,1.2l1.7-5.4l2.6-1.2L88.1,39.7z M112.2,33.2
		l-0.7,2.8l0.1-0.1c0.8-1.6,1.8-3.3,3-3.9l6.7-3.1c3.9-1.8,4.2,1.3,2.3,7.5L120,47.7c-1.2,3.8-1.1,4.7-1.1,5.9l-10,4.7
		c1.3-2.1,2.2-4.4,2.9-6.8l4.3-13.6c0.5-1.7,0.4-2.1-0.7-1.6l-3,1.4c-1,0.5-1.5,1.2-2.1,2.9l-4.3,13.6c-1.2,3.8-1.1,4.7-1.1,5.9
		l-10,4.7c1.3-2.1,2.2-4.4,2.9-6.8l4.7-14.9c1.2-3.8,1.1-4.7,1.1-5.9L112.2,33.2z">
  </path>
  <path class="st5" d="M51.8,114.4l6.6-3.1c2.1-1,2.7-1.9,3.9-5.7L67,91.8c1.3-3.8,1.2-4.4-0.8-3.5l-5.5,2.4L51.8,114.4z M47.9,97.1
		c2.1-5.3,2.7-7.7,2.2-9.2l24.3-11.2c7.1-3.3,8,0.1,4.1,11.6L73,106.3c-1.6,5.3-5.7,8.8-12.8,12.2l-25.7,12
		c1.4-2.5,2.3-4.7,4.3-10.2L47.9,97.1z M167.7,40.6c1.5-2.1,3.4-5.1,4.2-6.6c0.7-1.1,1.2-2.3,1.5-3.5l12.2-5.7
		c-3.7,4.1-7.2,8.5-10.4,13.1l-27.3,39.5l-15.2,7.1l10-31.3l-0.1,0.1l-21.4,36.6l-12.8,6l9.8-30.7c2-6.3,2.1-7.2,2.3-9.9l14.4-6.7
		c-1.6,2.8-2.9,5.8-3.7,8.9l-5.5,17.7l0.1-0.1l18-30.7l16.9-7.9l-8.4,26.2l0.1-0.1L167.7,40.6z">
  </path>
  <path class="st3" d="M56.7,56.1l26.9-12.6l1.8-5.6l16.6-8.3l-2,6.3l31.3-14.4c0,0-3.6,8.7-9.3,29.5L199,15.1
		c0,0-12.2,11.5-49.4,65.1l-68.2,31.9c-1.8,0.8-3.7,1.6-5.9,0.9c-0.1,0-0.1,0-0.1-0.1c-0.6-0.2-1.1-0.5-1.6-0.9
		c-0.8,1.2-1.8,2.4-2.9,3.4c-2.4,2.3-5.5,4.1-9.2,5.8l-35.3,16.6c7.3-12.3,18.7-44.7,18.7-44.7l-23.3,9.7
		C30.9,93.4,56.7,56.1,56.7,56.1">
  </path>
  <path class="st6" d="M88.1,39.7l8.3-4.2l-1.9,6l6.6-3l-1.7,5.4l-6.5,3l-4.6,14.5c-0.5,1.8-0.5,2.2,0.9,1.5l2.9-1.4
		c1.2-0.6,2.3-1.5,3.3-2.4l-2.6,6.7l-10.3,4.8c-2.6,1.2-4.3,0.5-2.1-6.3l4.3-13.6l-2.6,1.2l1.7-5.4l2.6-1.2L88.1,39.7z M112.2,33.2
		l-0.7,2.8l0.1-0.1c0.8-1.6,1.8-3.3,3-3.9l6.7-3.1c3.9-1.8,4.2,1.3,2.3,7.5L120,47.7c-1.2,3.8-1.1,4.7-1.1,5.9l-10,4.7
		c1.3-2.1,2.2-4.4,2.9-6.8l4.3-13.6c0.5-1.7,0.4-2.1-0.7-1.6l-3,1.4c-1,0.5-1.5,1.2-2.1,2.9l-4.3,13.6c-1.2,3.8-1.1,4.7-1.1,5.9
		l-10,4.7c1.3-2.1,2.2-4.4,2.9-6.8l4.7-14.9c1.2-3.8,1.1-4.7,1.1-5.9L112.2,33.2z M44.7,83.4c-1,1.4-2.2,3.4-2.8,4.4
		c-0.4,0.7-0.8,1.5-1,2.3l-7.8,3.6c2.4-2.7,4.7-5.6,6.7-8.7l18.3-26.5l8.5-4L60,75.6l0.1-0.1l13.2-24l8.6-4l-6.6,20.7
		c-1.4,4.2-1.4,4.9-1.6,6.6L64,79.3c0.5-0.8,0.9-1.6,1.2-2.4c0.5-1.2,0.9-2.3,1.3-3.5l3.7-11.9l-0.1,0.1L59.2,81.6L49.7,86l5.6-17.6
		l-0.1,0.1L44.7,83.4z">
  </path>
  <path class="st5" d="M51.8,114.4l6.6-3.1c2.1-1,2.7-1.9,3.9-5.7L67,91.8c1.3-3.8,1.2-4.4-0.8-3.5l-5.5,2.4L51.8,114.4z M47.9,97.1
		c2.1-5.3,2.7-7.7,2.2-9.2l24.3-11.2c7.1-3.3,8,0.1,4.1,11.6L73,106.3c-1.6,5.3-5.7,8.8-12.8,12.2l-25.7,12
		c1.4-2.5,2.3-4.7,4.3-10.2L47.9,97.1z M101.4,78.6l1.8-5.6c0.8-2.3,0.7-3.1-0.7-2.5l-5,2.3c-1.4,0.7-2.1,1.8-2.8,4.1l-1.8,5.6
		L101.4,78.6z M90.3,90.7l-1.2,3.9c-0.9,2.9-0.5,3.8,1.5,2.9l11.8-5.5c2.3-1.1,3.6-2,6.1-4.3l-4,10.2l-24.3,11.4
		c-5.5,2.6-5.8-0.5-3.1-9.1l5.2-16.2c2.7-8.5,5.5-13.1,11-15.7l18.6-8.7c5.5-2.6,5.8,0.5,3.1,9.1l-4,12.5L90.3,90.7z M167.7,40.6
		c1.5-2.1,3.4-5.1,4.2-6.6c0.7-1.1,1.2-2.3,1.5-3.5l12.2-5.7c-3.7,4.1-7.2,8.5-10.4,13.1l-27.3,39.5l-15.2,7.1l10-31.3l-0.1,0.1
		l-21.4,36.6l-12.8,6l9.8-30.7c2-6.3,2.1-7.2,2.3-9.9l14.4-6.7c-1.6,2.8-2.9,5.8-3.7,8.9l-5.5,17.7l0.1-0.1l18-30.7l16.9-7.9
		l-8.4,26.2l0.1-0.1L167.7,40.6z">
  </path>
  <path class="st3" d="M158.9,81.6c0.2,0,0.3-0.1,0.3-0.3S159,81,158.8,81h-0.3v0.5H158.9z M158.5,82.9H158v-2.2h0.8
		c0.6,0,0.9,0.2,0.9,0.7s-0.2,0.5-0.5,0.6l0.5,1h-0.5l-0.5-0.9h-0.2L158.5,82.9z M158.8,80.2c-0.9,0.1-1.5,0.8-1.4,1.7
		c0.1,0.8,0.7,1.4,1.4,1.4c0.9-0.1,1.5-0.8,1.4-1.7C160.2,80.8,159.6,80.2,158.8,80.2 M158.8,83.8c-1.1,0-2.1-0.9-2.1-2.1
		c0-1.1,0.9-2.1,2.1-2.1c1.1,0,2.1,0.9,2.1,2.1c0,0,0,0,0,0c0,1.1-0.8,2-1.9,2.1C158.9,83.8,158.8,83.8,158.8,83.8">
  </path>
 </g>
</svg>